<svg xmlns="http://www.w3.org/2000/svg" viewBox="0 0 69 38">
  <path d="M19.9 35.05h5.95V.05H19.9c0 9.481 0 11.411.682 14.825.039.175.078.35.118.525H17.7c.8-3.8.8-5.4.8-15.4H12.55v35H18.5c0-9.481 0-11.411-.682-14.825-.04-.175-.079-.35-.118-.525H20.7c-.8 3.8-.8 5.4-.8 15.4Zm31.55-35H45.5c0 .912-.003 2.169-.013 3.785-.011 7.166-.115 9.033-1.107 12.09-.064.2-.128.4-.18.525h-.8c.054-.467.1-.898.15-1.391.297-2.965.297-5.306.297-14.009H37.9v35h5.95c0-.912.003-2.169.013-3.785.011-7.604.052-9.241-.353-12.665h.8c1.152 3.28 1.283 4.988 1.298 12.298.003 1.176.005 2.377.005 3.487h6.95c0-8.005-.415-13.004-1.725-15.544a3.42 3.42 0 0 0-2.225-1.956 3.423 3.423 0 0 0 2.2-2c1.022-2.031 1.507-5.549 1.677-10.571.073-2.957.146-5.936.219-8.929ZM53 35.05h5.95v-15.4h1.85v15.4h5.95s-.92-28.187-1.657-34.38A13.859 13.859 0 0 0 65 0H54.7C54 4.4 53 35.05 53 35.05Zm-25.15 0h8.8v-4.2H33.8v-11.2h2.35v-4.2H33.8v-11.2h2.85V.05h-8.8v35Zm-16.55-30.8V.05H0v4.2h2.65v30.8H8.6v-30.8H11.3ZM60.75 15.45h-1.8c.029-1.056.057-2.345.089-3.746.038-1.526.089-2.95.155-4.287.071-1.383.163-2.682.306-3.217h.95c.214 3.771.398 7.542.398 11.25Z" fill="#471206"></path>
</svg>
